<?xml version="1.0" encoding="UTF-8"?>
<svg id="Layer_2" data-name="Layer 2" xmlns="http://www.w3.org/2000/svg" viewBox="0 0 205.53 273.68">
  <defs>
    <style>
      .cls-1 {
        fill: #fff;
        stroke: #000;
        stroke-miterlimit: 10;
        stroke-width: 3px;
      }
    </style>
  </defs>
  <g id="Layer_3" data-name="Layer 3">
    <g>
      <rect class="cls-1" x="1.5" y="1.5" width="202.53" height="270.68"/>
      <path d="M30.64,38.61c9.59,1.06,19.31-.88,28.79-2.16,9.48-1.28,18.85-2.88,28.23-4.71,4.65-.91,9.32-1.75,14.04-2.14s9.51-.26,14.26.3c9.31,1.1,18.44,3.45,27.84,3.85,10.85.47,21.78-1.19,32.59.35.81.12,1.6-.2,1.85-1.05.2-.7-.25-1.73-1.05-1.85-9.65-1.38-19.33-.37-29.02-.37s-18.84-2.02-28.28-3.42c-4.6-.68-9.24-1.17-13.89-1.06s-9.49.75-14.17,1.56c-9.47,1.65-18.83,3.64-28.35,4.97-5.38.75-10.77,1.51-16.16,2.18-5.53.7-11.11,1.15-16.67.54-1.92-.21-1.9,2.79,0,3h0Z"/>
      <path d="M29.02,63.2c9.24-.23,18.49-.46,27.73-.7,4.66-.12,9.33-.23,13.99-.35,4.39-.11,8.8-.1,13.16-.71s8.32-2.4,12.67-2.3,8.36,1.51,12.46,2.55c8.12,2.06,16.3,1.69,24.56.85,9.16-.93,18.57-2.26,27.64.03,1.87.47,2.67-2.42.8-2.89-16.41-4.14-33.11,3.11-49.54-.26-4.16-.86-8.19-2.31-12.4-2.94-2.06-.31-4.13-.45-6.21-.21s-4.14.82-6.19,1.35c-4.34,1.13-8.73,1.32-13.19,1.43s-9.33.23-13.99.35c-10.49.26-20.98.53-31.48.79-1.93.05-1.93,3.05,0,3h0Z"/>
      <path d="M29.01,91.31c8.94.47,17.96.9,26.81-.74,4.33-.8,8.57-2.4,13.04-2.16,4.1.22,8.01,1.73,11.91,2.88s8.08,1.87,12.3,1.51,8.68-1.48,13.01-2.32c8.92-1.73,18.01-2.43,27.08-2.62,10.21-.21,20.43.24,30.63.69,1.93.09,1.93-2.91,0-3-18.08-.8-36.3-1.56-54.24,1.29-4.4.7-8.73,1.79-13.12,2.53s-8.51.7-12.76-.39c-3.9-1-7.67-2.51-11.64-3.2-4.4-.76-8.5-.07-12.79.97-9.97,2.42-20.04,2.09-30.21,1.56-1.93-.1-1.92,2.9,0,3h0Z"/>
      <path d="M29.7,120.14c18.19-2.25,36.53-3.27,54.85-3.03,9.16.12,18.32.55,27.45,1.29s18.16,2.06,27.25,3.1c4.88.56,9.46.28,14.17-1.17,4.23-1.3,8.73-3.22,13.14-1.66,1.82.65,2.61-2.25.8-2.89-3.77-1.33-7.69-.52-11.4.61-4.21,1.29-8.14,2.56-12.61,2.43s-9.03-1-13.52-1.57-9.26-1.09-13.91-1.51c-18.33-1.67-36.78-2.08-55.17-1.24-10.38.48-20.74,1.36-31.05,2.63-1.89.23-1.91,3.24,0,3h0Z"/>
      <path d="M33.96,153.56c8.23,2.31,16.68.6,24.78-1.43s16.78-4.45,25.52-3.27c4.72.63,9.35,1.66,14.1,2.06s9.89.43,14.84.38,9.76-.17,14.64-.05,9.74.6,14.59,1.24c10.6,1.4,21.45,3.2,31.96.3,1.86-.51,1.07-3.41-.8-2.89-9.23,2.55-18.84,1.26-28.16,0-4.71-.64-9.43-1.27-14.18-1.52s-9.76-.19-14.63-.12-9.75.14-14.62-.1c-4.77-.23-9.42-.95-14.12-1.75-4.4-.75-8.74-1.14-13.19-.67-4.2.44-8.32,1.38-12.42,2.4-8.94,2.24-18.33,5.1-27.51,2.52-1.86-.52-2.66,2.37-.8,2.89h0Z"/>
      <path d="M31.42,181.99c8.75.95,17.89,1.88,26.47-.64,4.1-1.21,7.71-3.31,11.27-5.64s6.91-4.62,10.95-5.6c4.7-1.13,9.62-.32,14.3.53s9.67,1.75,14.5,2.67c9.67,1.83,19.31,3.81,28.84,6.25,5.37,1.37,10.69,2.92,15.97,4.6,4.96,1.57,10.26,3.02,15.39,1.37,1.83-.59,1.05-3.49-.8-2.89-4.61,1.48-9.35.04-13.8-1.37-4.67-1.48-9.36-2.87-14.1-4.12-9.44-2.48-18.99-4.48-28.57-6.32-4.75-.91-9.52-1.78-14.28-2.65s-9.42-1.85-14.18-1.55c-4.29.27-8.15,1.79-11.81,3.98-3.54,2.12-6.83,4.67-10.59,6.41-9.17,4.25-19.85,3.04-29.56,1.98-1.92-.21-1.9,2.79,0,3h0Z"/>
      <path d="M37.12,206.62c7.76.35,15.55.69,23.31.28,3.84-.2,7.68-.6,11.47-1.25s7.42-1.65,11.21-1.95c7.36-.58,14.01,2.75,21.04,4.33,7.26,1.63,14.76,1.97,22.17,1.59,8.45-.44,16.83-1.76,25.18-3.09,1.9-.3,1.09-3.2-.8-2.89-14.58,2.33-29.72,4.75-44.39,1.79-6.98-1.41-13.65-4.78-20.87-4.82-3.74-.02-7.43.79-11.07,1.53s-7.64,1.31-11.52,1.6c-8.57.64-17.16.26-25.73-.13-1.93-.09-1.93,2.91,0,3h0Z"/>
      <path d="M31.89,238.54c18.02,1.4,36.11.06,53.99-2.35,8.73-1.18,17.41-2.68,26.23-3.03s16.9.15,25.23,1.48c9.38,1.5,18.57,4.04,27.39,7.53,1.8.71,2.57-2.19.8-2.89-15.78-6.25-32.77-9.4-49.74-9.22-8.69.09-17.25,1.31-25.83,2.55-9.06,1.31-18.16,2.37-27.29,2.97-10.24.67-20.53.75-30.77-.05-1.93-.15-1.92,2.85,0,3h0Z"/>
    </g>
  </g>
</svg>