<?xml version="1.0" encoding="UTF-8"?>
<svg id="Layer_2" data-name="Layer 2" xmlns="http://www.w3.org/2000/svg" viewBox="0 0 543.57 82.3">
  <defs>
    <style>
      .cls-1 {
        fill: #cecece;
      }

      .cls-2 {
        fill: #c1c1c1;
      }

      .cls-3 {
        fill: #ddd;
      }

      .cls-4 {
        fill: #cae8ef;
      }

      .cls-5 {
        fill: #b2dced;
      }

      .cls-6 {
        fill: none;
        stroke: #000;
        stroke-miterlimit: 10;
        stroke-width: 3px;
      }
    </style>
  </defs>
  <g id="Layer_2-2" data-name="Layer 2">
    <g>
      <g>
        <path class="cls-2" d="M42.89,46.3h19.06c4.12,0,7.47,3.35,7.47,7.47v12.06c0,4.12-3.35,7.47-7.47,7.47h-7.41c-10.55,0-19.12-8.57-19.12-19.12v-.41c0-4.12,3.35-7.47,7.47-7.47Z" transform="translate(13.21 -9.38) rotate(11.69)"/>
        <path class="cls-1" d="M22.82,28.24h42.62c4.12,0,7.47,3.35,7.47,7.47v12.06c0,4.12-3.35,7.47-7.47,7.47h-30.97c-10.55,0-19.12-8.57-19.12-19.12v-.41c0-4.12,3.35-7.47,7.47-7.47Z" transform="translate(9.37 -8.08) rotate(11.69)"/>
        <path class="cls-3" d="M7.43,7.66h62.06c4.12,0,7.47,3.35,7.47,7.47v12.06c0,4.12-3.35,7.47-7.47,7.47H19.08C8.53,34.66-.04,26.1-.04,15.55v-.41C-.04,11.01,3.31,7.66,7.43,7.66Z" transform="translate(5.09 -7.36) rotate(11.69)"/>
      </g>
      <g>
        <path class="cls-2" d="M493.27,46.3h7.41c4.12,0,7.47,3.35,7.47,7.47v12.06c0,4.12-3.35,7.47-7.47,7.47h-19.06c-4.12,0-7.47-3.35-7.47-7.47v-.41c0-10.55,8.57-19.12,19.12-19.12Z" transform="translate(984.22 18.82) rotate(168.31)"/>
        <path class="cls-1" d="M489.78,28.24h30.97c4.12,0,7.47,3.35,7.47,7.47v12.06c0,4.12-3.35,7.47-7.47,7.47h-42.62c-4.12,0-7.47-3.35-7.47-7.47v-.41c0-10.55,8.57-19.12,19.12-19.12Z" transform="translate(996.98 -18.6) rotate(168.31)"/>
        <path class="cls-3" d="M485.73,7.66h50.41c4.12,0,7.47,3.35,7.47,7.47v12.06c0,4.12-3.35,7.47-7.47,7.47h-62.06c-4.12,0-7.47-3.35-7.47-7.47v-.41c0-10.55,8.57-19.12,19.12-19.12Z" transform="translate(1004.02 -60.47) rotate(168.31)"/>
      </g>
      <rect class="cls-5" x="62.42" y="7.8" width="417" height="73" rx="12.79" ry="12.79"/>
      <polygon class="cls-4" points="388.86 7.8 315.86 80.8 348.38 80.8 421.38 7.8 388.86 7.8"/>
      <path class="cls-4" d="M479.42,20.59c0-7.06-5.73-12.79-12.79-12.79h-34.01l-73,73h78.05l41.75-41.75v-18.46Z"/>
      <polygon class="cls-4" points="150.14 7.8 77.14 80.8 89.62 80.8 162.62 7.8 150.14 7.8"/>
      <g>
        <path d="M112.9,55.91v-25.12h5.44v20.7h10.8v4.43h-16.23Z"/>
        <path d="M134.57,51.77h5.9v-10.29h-5.9v-4.14h11.23v14.43h5.47v4.14h-16.7v-4.14ZM139.94,32.44v-1.04c0-1.44.83-2.52,3.2-2.52s3.2,1.08,3.2,2.52v1.04c0,1.4-.83,2.52-3.2,2.52s-3.2-1.12-3.2-2.52Z"/>
        <path d="M165.03,55.91c-3.85,0-5.69-2.23-5.69-5.36v-9.07h-5.04v-4.14h3.28c1.58,0,2.2-.54,2.2-2.2v-4.36h4.9v6.55h7.24v4.14h-7.24v10.29h7.24v4.14h-6.88Z"/>
        <path d="M176.19,46.7c0-6.08,3.46-9.79,9.03-9.79s8.96,3.64,8.96,9.43v1.58h-12.71v.32c0,2.38,1.55,4,4.39,4,2.2,0,3.74-.94,4.9-2.3l2.88,3.13c-1.44,1.76-3.96,3.28-7.96,3.28-6.23,0-9.5-3.71-9.5-9.65ZM181.48,44.65v.29h7.49v-.29c0-2.41-1.4-3.92-3.71-3.92s-3.78,1.55-3.78,3.92Z"/>
        <path d="M198.65,51.77h4.28v-10.29h-4.28v-4.14h9.61v5.25h.25c.68-2.74,2.27-5.25,5.94-5.25h1.76v4.9h-3.96c-2.63,0-4,1.8-4,4.03v5.51h6.12v4.14h-15.73v-4.14Z"/>
        <path d="M235.12,55.91c-2.2,0-3.64-1.19-3.85-3.28h-.18c-.65,2.41-2.81,3.71-5.65,3.71-3.6,0-5.98-2.05-5.98-5.54,0-3.89,2.92-5.72,8.35-5.72h2.99v-.94c0-2.2-.94-3.35-3.38-3.35-2.23,0-3.53.97-4.54,2.34l-2.92-2.59c1.22-2.09,3.92-3.64,8.06-3.64,5.08,0,8.1,2.34,8.1,7.02v8.13h2.05v3.85h-3.06ZM230.8,50.19v-2.23h-2.84c-2.12,0-3.28.76-3.28,2.2v.72c0,1.3,1.08,1.98,2.77,1.98,1.87,0,3.35-.94,3.35-2.66Z"/>
        <path d="M241.85,51.77h4.28v-10.29h-4.28v-4.14h9.61v5.25h.25c.68-2.74,2.27-5.25,5.94-5.25h1.76v4.9h-3.96c-2.63,0-4,1.8-4,4.03v5.51h6.12v4.14h-15.73v-4.14Z"/>
        <path d="M276.27,37.34h5.44l-8.75,21.56c-1.08,2.7-2.77,4.21-5.94,4.21h-3.67v-4.14h4.46l1.15-3.17-7.49-18.47h5.72l2.7,7.81,1.69,5.4h.29l1.62-5.4,2.77-7.81Z"/>
        <path d="M307.3,55.91v-25.12h5.44v20.7h10.8v4.43h-16.23Z"/>
        <path d="M327.39,46.7c0-6.08,3.46-9.79,9.03-9.79s8.96,3.64,8.96,9.43v1.58h-12.71v.32c0,2.38,1.55,4,4.39,4,2.2,0,3.74-.94,4.9-2.3l2.88,3.13c-1.44,1.76-3.96,3.28-7.96,3.28-6.23,0-9.5-3.71-9.5-9.65ZM332.68,44.65v.29h7.49v-.29c0-2.41-1.4-3.92-3.71-3.92s-3.78,1.55-3.78,3.92Z"/>
        <path d="M357.88,63.54c-7.05,0-9-1.76-9-4.28,0-2.09,1.33-3.06,3.56-3.64v-.22c-1.58-.47-2.59-1.3-2.59-2.92,0-1.8,1.33-2.56,3.35-3.02v-.22c-2.2-1.04-3.49-2.99-3.49-5.72,0-4.32,3.2-6.62,8.06-6.62,1.19,0,2.3.14,3.28.4v-1.01c0-1.44,1.08-2.52,2.84-2.52h3.28v3.89h-4.46v.32c2.02,1.04,3.2,2.92,3.2,5.54,0,4.28-3.24,6.62-8.14,6.62-1.08,0-2.12-.11-3.02-.36-.54.29-.94.72-.94,1.37,0,1.19,1.26,1.26,2.74,1.26h4.25c5.33,0,7.38,2.23,7.38,5.36,0,3.92-3.24,5.76-10.29,5.76ZM360.36,56.63h-6.37c-.47.4-.72.9-.72,1.51,0,1.15.9,1.98,3.24,1.98h3.13c2.41,0,3.49-.68,3.49-1.94,0-.97-.61-1.55-2.77-1.55ZM360.86,43.96v-.86c0-1.62-.97-2.81-3.1-2.81s-3.02,1.19-3.02,2.81v.86c0,1.62.94,2.81,3.02,2.81s3.1-1.19,3.1-2.81Z"/>
        <path d="M370.59,46.7c0-6.08,3.46-9.79,9.03-9.79s8.96,3.64,8.96,9.43v1.58h-12.71v.32c0,2.38,1.55,4,4.39,4,2.2,0,3.74-.94,4.9-2.3l2.88,3.13c-1.44,1.76-3.96,3.28-7.96,3.28-6.23,0-9.5-3.71-9.5-9.65ZM375.88,44.65v.29h7.49v-.29c0-2.41-1.4-3.92-3.71-3.92s-3.78,1.55-3.78,3.92Z"/>
        <path d="M392.73,55.91v-18.57h5.33v3.38h.22c.83-2.09,2.48-3.82,5.47-3.82,3.56,0,6.05,2.48,6.05,6.98v12.02h-5.33v-11.3c0-2.34-1.04-3.6-3.13-3.6-1.66,0-3.28.9-3.28,2.7v12.2h-5.33Z"/>
        <path d="M426.13,52.53h-.25c-.94,2.23-2.52,3.82-5.51,3.82-4.1,0-6.98-2.99-6.98-9.72s2.88-9.72,6.98-9.72c2.99,0,4.57,1.58,5.51,3.82h.25v-11.45h5.33v26.64h-5.33v-3.38ZM426.13,49.36v-5.47c0-1.94-1.58-2.84-3.46-2.84-2.38,0-3.74,1.55-3.74,4.14v2.88c0,2.59,1.37,4.14,3.74,4.14,1.87,0,3.46-.9,3.46-2.84Z"/>
      </g>
      <path class="cls-6" d="M541.67,7.86l-.08-.4c-.84-4.04-4.79-6.64-8.83-5.8l-55.72,11.53c-2.32-3.26-6.11-5.39-10.41-5.39H75.2c-4.16,0-7.85,2-10.18,5.07L10.81,1.66C6.77.82,2.82,3.42,1.98,7.46l-.08.4C-.24,18.2,6.41,28.32,16.75,30.46l.32.07c-2.07,10.3,4.57,20.35,14.87,22.48l4.62.96c-.38,9.19,5.91,17.56,15.21,19.49l7.26,1.5c1.77.37,3.53.07,5.01-.72,2.19,3.92,6.37,6.57,11.17,6.57h391.42c5.16,0,9.59-3.06,11.61-7.45,1.69,1.42,3.98,2.08,6.31,1.6l7.26-1.5c9.3-1.92,15.59-10.3,15.21-19.49l4.62-.96c10.3-2.13,16.93-12.18,14.87-22.48l.32-.07c10.34-2.14,16.99-12.26,14.85-22.6Z"/>
    </g>
  </g>
</svg>