<?xml version="1.0" encoding="UTF-8"?>
<svg id="Layer_2" data-name="Layer 2" xmlns="http://www.w3.org/2000/svg" viewBox="0 0 151.89 36.1">
  <defs>
    <style>
      .cls-1, .cls-2 {
        fill: none;
      }

      .cls-2 {
        stroke: #ff4f12;
        stroke-linecap: round;
        stroke-miterlimit: 10;
        stroke-width: 3px;
      }
    </style>
  </defs>
  <g id="Layer_1-2" data-name="Layer 1">
    <g>
      <path d="M2.91,27.03L1.36,1.91h4.64l.72,15.05.22,4.75h.32l2.16-14.33h4.86l2.16,14.33h.32l.22-4.61.72-15.19h4.46l-1.55,25.12h-6.84l-1.84-13.86h-.36l-1.84,13.86H2.91Z"/>
      <path d="M25.23,22.89h4.28v-10.29h-4.28v-4.14h9.61v5.26h.25c.68-2.74,2.27-5.26,5.94-5.26h1.76v4.9h-3.96c-2.63,0-4,1.8-4,4.03v5.51h6.12v4.14h-15.73v-4.14Z"/>
      <path d="M47.55,22.89h5.9v-10.29h-5.9v-4.14h11.23v14.43h5.47v4.14h-16.7v-4.14ZM52.91,3.56v-1.04c0-1.44.83-2.52,3.2-2.52s3.2,1.08,3.2,2.52v1.04c0,1.4-.83,2.52-3.2,2.52s-3.2-1.12-3.2-2.52Z"/>
      <path d="M78,27.03c-3.85,0-5.69-2.23-5.69-5.36v-9.07h-5.04v-4.14h3.28c1.58,0,2.2-.54,2.2-2.2V1.91h4.9v6.55h7.24v4.14h-7.24v10.29h7.24v4.14h-6.88Z"/>
      <path d="M89.16,17.82c0-6.08,3.46-9.79,9.03-9.79s8.96,3.64,8.96,9.43v1.58h-12.71v.32c0,2.38,1.55,4,4.39,4,2.2,0,3.74-.94,4.9-2.3l2.88,3.13c-1.44,1.76-3.96,3.28-7.96,3.28-6.23,0-9.5-3.71-9.5-9.65ZM94.45,15.77v.29h7.49v-.29c0-2.41-1.4-3.92-3.71-3.92s-3.78,1.55-3.78,3.92Z"/>
      <path d="M116.34,1.91v15.91c0,3.2.25,5.29,3.42,5.29s3.42-2.09,3.42-5.29V1.91h5.4v15.19c0,6.88-1.51,10.37-8.82,10.37s-8.82-3.49-8.82-10.37V1.91h5.4Z"/>
      <path d="M132.68,8.46h5.33v3.38h.25c.94-2.23,2.52-3.82,5.51-3.82,4.1,0,6.98,2.99,6.98,9.72s-2.88,9.72-6.98,9.72c-2.99,0-4.57-1.58-5.51-3.82h-.25v10.58h-5.33V8.46ZM145.21,19.19v-2.88c0-2.59-1.37-4.14-3.74-4.14-1.87,0-3.46.9-3.46,2.84v5.47c0,1.94,1.58,2.84,3.46,2.84,2.38,0,3.74-1.55,3.74-4.14Z"/>
      <path d="M132.68,8.46h5.33v3.38h.25c.94-2.23,2.52-3.82,5.51-3.82,4.1,0,6.98,2.99,6.98,9.72s-2.88,9.72-6.98,9.72c-2.99,0-4.57-1.58-5.51-3.82h-.25v10.58h-5.33V8.46ZM145.21,19.19v-2.88c0-2.59-1.37-4.14-3.74-4.14-1.87,0-3.46.9-3.46,2.84v5.47c0,1.94,1.58,2.84,3.46,2.84,2.38,0,3.74-1.55,3.74-4.14Z"/>
      <path class="cls-2" d="M150.39,33.22c-2.1-.81-4.37-1.54-6.78-2.2-.73-.2-1.52-.4-2.41-.41-.06,0-.12,0-.18,0"/>
      <path class="cls-1" d="M129.68,33.07c2.95-.7,5.91-1.39,8.86-2.09.76-.18,1.59-.36,2.47-.37"/>
      <path class="cls-2" d="M129.68,33.07c-.31.07-.61.14-.92.22-1.33.31-2.75.64-4.31.63-3.79,0-6.01-1.87-9.73-2.15-5.27-.4-8.97,2.5-14.33,2.49-6.31,0-9.59-3.93-15.84-3.59-4.57.25-6.94,2.72-11.55,2.79-3.68.06-6.15-1.45-9.44-2.11-4.45-.89-9.92-.13-14.03.99-3.41.93-6.73,2.14-10.86,2.22-5.15.09-9.22-1.59-13.67-2.62-1.39-.32-2.96-.59-4.56-.51-2.34.12-3.98.92-5.62,1.59-2,.82-4.53,1.54-7.42,1.59s-5.98-.82-5.91-1.95"/>
    </g>
  </g>
</svg>