<?xml version="1.0" encoding="UTF-8"?>
<svg id="Layer_2" data-name="Layer 2" xmlns="http://www.w3.org/2000/svg" viewBox="0 0 417 73">
  <defs>
    <style>
      .cls-1 {
        fill: #c1b099;
      }

      .cls-2 {
        fill: #e2e2e2;
      }

      .cls-3 {
        fill: #d8cbba;
      }
    </style>
  </defs>
  <g id="Layer_2-2" data-name="Layer 2">
    <g>
      <rect class="cls-2" width="417" height="73" rx="12.79" ry="12.79"/>
      <g>
        <path d="M89.77,49.79l-1.58-6.05h-6.88l-1.55,6.05h-5.47l6.8-25.12h7.63l6.8,25.12h-5.76ZM84.91,29.88h-.29l-2.45,9.5h5.18l-2.45-9.5Z"/>
        <path d="M97.47,46.73l2.99-2.77c1.44,1.58,3.38,2.52,5.87,2.52,2.09,0,3.38-.65,3.38-1.98,0-1.04-.86-1.37-2.3-1.58l-2.99-.47c-3.31-.5-5.94-1.91-5.94-5.44,0-3.89,3.13-6.23,8.5-6.23,3.64,0,6.19,1.04,7.74,2.84l-2.66,3.02c-1.08-1.19-2.84-2.12-5.26-2.12-2.02,0-3.1.65-3.1,1.87,0,1.08.86,1.4,2.3,1.62l2.95.47c3.35.5,5.98,1.91,5.98,5.44,0,3.85-3.13,6.3-8.64,6.3-4.1,0-7.31-1.33-8.82-3.49Z"/>
        <path d="M119.43,31.22h5.33v3.38h.25c.94-2.23,2.52-3.82,5.51-3.82,4.1,0,6.98,2.99,6.98,9.72s-2.88,9.72-6.98,9.72c-2.99,0-4.57-1.58-5.51-3.82h-.25v10.58h-5.33v-25.77ZM131.96,41.94v-2.88c0-2.59-1.37-4.14-3.74-4.14-1.87,0-3.46.9-3.46,2.84v5.47c0,1.94,1.58,2.84,3.46,2.84,2.38,0,3.74-1.55,3.74-4.14Z"/>
        <path d="M142.29,45.65h5.9v-10.29h-5.9v-4.14h11.23v14.43h5.47v4.14h-16.7v-4.14ZM147.66,26.32v-1.04c0-1.44.83-2.52,3.2-2.52s3.2,1.08,3.2,2.52v1.04c0,1.4-.83,2.52-3.2,2.52s-3.2-1.12-3.2-2.52Z"/>
        <path d="M163.17,45.65h4.28v-10.29h-4.28v-4.14h9.61v5.26h.25c.68-2.74,2.27-5.26,5.94-5.26h1.76v4.9h-3.96c-2.63,0-4,1.8-4,4.03v5.51h6.12v4.14h-15.73v-4.14Z"/>
        <path d="M185.49,45.65h5.9v-10.29h-5.9v-4.14h11.23v14.43h5.47v4.14h-16.7v-4.14ZM190.86,26.32v-1.04c0-1.44.83-2.52,3.2-2.52s3.2,1.08,3.2,2.52v1.04c0,1.4-.83,2.52-3.2,2.52s-3.2-1.12-3.2-2.52Z"/>
        <path d="M206.05,49.79v-18.57h5.33v3.38h.22c.83-2.09,2.48-3.82,5.47-3.82,3.56,0,6.05,2.48,6.05,6.98v12.02h-5.33v-11.3c0-2.34-1.04-3.6-3.13-3.6-1.66,0-3.28.9-3.28,2.7v12.2h-5.33Z"/>
        <path d="M236,57.42c-7.05,0-9-1.76-9-4.28,0-2.09,1.33-3.06,3.56-3.64v-.22c-1.58-.47-2.59-1.3-2.59-2.92,0-1.8,1.33-2.56,3.35-3.02v-.22c-2.2-1.04-3.49-2.99-3.49-5.72,0-4.32,3.2-6.62,8.06-6.62,1.19,0,2.3.14,3.28.4v-1.01c0-1.44,1.08-2.52,2.84-2.52h3.28v3.89h-4.46v.32c2.02,1.04,3.2,2.92,3.2,5.54,0,4.28-3.24,6.62-8.14,6.62-1.08,0-2.12-.11-3.02-.36-.54.29-.94.72-.94,1.37,0,1.19,1.26,1.26,2.74,1.26h4.25c5.33,0,7.38,2.23,7.38,5.36,0,3.92-3.24,5.76-10.29,5.76ZM238.48,50.51h-6.37c-.47.4-.72.9-.72,1.51,0,1.15.9,1.98,3.24,1.98h3.13c2.41,0,3.49-.68,3.49-1.94,0-.97-.61-1.55-2.77-1.55ZM238.99,37.84v-.86c0-1.62-.97-2.81-3.1-2.81s-3.02,1.19-3.02,2.81v.86c0,1.62.94,2.81,3.02,2.81s3.1-1.19,3.1-2.81Z"/>
        <path d="M284.17,49.79l-1.58-6.05h-6.88l-1.55,6.05h-5.47l6.8-25.12h7.63l6.8,25.12h-5.76ZM279.31,29.88h-.29l-2.45,9.5h5.18l-2.45-9.5Z"/>
        <path d="M304.04,46.41h-.22c-.83,2.09-2.48,3.82-5.47,3.82-3.56,0-6.05-2.48-6.05-6.98v-12.02h5.33v11.3c0,2.34,1.04,3.6,3.13,3.6,1.66,0,3.28-.9,3.28-2.7v-12.2h5.33v18.57h-5.33v-3.38Z"/>
        <path d="M323.94,49.79c-3.85,0-5.69-2.23-5.69-5.36v-9.07h-5.04v-4.14h3.28c1.58,0,2.2-.54,2.2-2.2v-4.36h4.9v6.55h7.24v4.14h-7.24v10.29h7.24v4.14h-6.88Z"/>
        <path d="M335.65,23.15h5.33v11.45h.22c.83-2.09,2.48-3.82,5.47-3.82,3.56,0,6.05,2.48,6.05,6.98v12.02h-5.33v-11.3c0-2.34-1.04-3.6-3.13-3.6-1.66,0-3.28.9-3.28,2.7v12.2h-5.33v-26.64Z"/>
        <path d="M356.38,40.5c0-6.01,3.53-9.72,9.32-9.72s9.32,3.71,9.32,9.72-3.53,9.72-9.32,9.72-9.32-3.71-9.32-9.72ZM369.52,41.98v-2.95c0-2.74-1.44-4.28-3.82-4.28s-3.82,1.55-3.82,4.28v2.95c0,2.74,1.44,4.28,3.82,4.28s3.82-1.55,3.82-4.28Z"/>
        <path d="M379.17,45.65h4.28v-10.29h-4.28v-4.14h9.61v5.26h.25c.68-2.74,2.27-5.26,5.94-5.26h1.76v4.9h-3.96c-2.63,0-4,1.8-4,4.03v5.51h6.12v4.14h-15.73v-4.14Z"/>
      </g>
      <g>
        <circle class="cls-1" cx="36" cy="36.5" r="25"/>
        <path class="cls-3" d="M47.29,14.19L13.69,47.79c1.42,2.8,3.34,5.29,5.66,7.36L54.65,19.85c-2.07-2.32-4.56-4.24-7.36-5.66Z"/>
        <path class="cls-3" d="M61,36.5c0-5.36-1.69-10.31-4.56-14.38L21.62,56.94c4.07,2.87,9.03,4.56,14.38,4.56,1.5,0,2.97-.14,4.39-.39l20.21-20.21c.25-1.43.39-2.89.39-4.39Z"/>
      </g>
    </g>
  </g>
</svg>