<?xml version="1.0" encoding="UTF-8"?>
<svg id="Layer_2" data-name="Layer 2" xmlns="http://www.w3.org/2000/svg" viewBox="0 0 540.57 79.3">
  <defs>
    <style>
      .cls-1 {
        fill: #cecece;
      }

      .cls-2 {
        fill: #c1c1c1;
      }

      .cls-3 {
        fill: #ddd;
      }

      .cls-4 {
        fill: #cae8ef;
      }

      .cls-5 {
        fill: #b2dced;
      }
    </style>
  </defs>
  <g id="Layer_2-2" data-name="Layer 2">
    <g>
      <g>
        <path class="cls-2" d="M41.39,44.8h19.06c4.12,0,7.47,3.35,7.47,7.47v12.06c0,4.12-3.35,7.47-7.47,7.47h-7.41c-10.55,0-19.12-8.57-19.12-19.12v-.41c0-4.12,3.35-7.47,7.47-7.47Z" transform="translate(12.87 -9.11) rotate(11.69)"/>
        <path class="cls-1" d="M21.32,26.74h42.62c4.12,0,7.47,3.35,7.47,7.47v12.06c0,4.12-3.35,7.47-7.47,7.47h-30.97c-10.55,0-19.12-8.57-19.12-19.12v-.41c0-4.12,3.35-7.47,7.47-7.47Z" transform="translate(9.04 -7.8) rotate(11.69)"/>
        <path class="cls-3" d="M5.93,6.16h62.06c4.12,0,7.47,3.35,7.47,7.47v12.06c0,4.12-3.35,7.47-7.47,7.47H17.58C7.03,33.16-1.54,24.6-1.54,14.05v-.41c0-4.12,3.35-7.47,7.47-7.47Z" transform="translate(4.75 -7.08) rotate(11.69)"/>
      </g>
      <g>
        <path class="cls-2" d="M491.77,44.8h7.41c4.12,0,7.47,3.35,7.47,7.47v12.06c0,4.12-3.35,7.47-7.47,7.47h-19.06c-4.12,0-7.47-3.35-7.47-7.47v-.41c0-10.55,8.57-19.12,19.12-19.12Z" transform="translate(980.95 16.15) rotate(168.31)"/>
        <path class="cls-1" d="M488.28,26.74h30.97c4.12,0,7.47,3.35,7.47,7.47v12.06c0,4.12-3.35,7.47-7.47,7.47h-42.62c-4.12,0-7.47-3.35-7.47-7.47v-.41c0-10.55,8.57-19.12,19.12-19.12Z" transform="translate(993.71 -21.26) rotate(168.31)"/>
        <path class="cls-3" d="M484.23,6.16h50.41c4.12,0,7.47,3.35,7.47,7.47v12.06c0,4.12-3.35,7.47-7.47,7.47h-62.06c-4.12,0-7.47-3.35-7.47-7.47v-.41c0-10.55,8.57-19.12,19.12-19.12Z" transform="translate(1000.75 -63.14) rotate(168.31)"/>
      </g>
      <rect class="cls-5" x="60.92" y="6.3" width="417" height="73" rx="12.79" ry="12.79"/>
      <polygon class="cls-4" points="387.36 6.3 314.36 79.3 346.88 79.3 419.88 6.3 387.36 6.3"/>
      <path class="cls-4" d="M477.92,19.09c0-7.06-5.73-12.79-12.79-12.79h-34.01l-73,73h78.05l41.75-41.75v-18.46Z"/>
      <polygon class="cls-4" points="148.64 6.3 75.64 79.3 88.12 79.3 161.12 6.3 148.64 6.3"/>
      <g>
        <path d="M111.4,54.41v-25.12h5.44v20.7h10.8v4.43h-16.23Z"/>
        <path d="M133.07,50.27h5.9v-10.29h-5.9v-4.14h11.23v14.43h5.47v4.14h-16.7v-4.14ZM138.44,30.94v-1.04c0-1.44.83-2.52,3.2-2.52s3.2,1.08,3.2,2.52v1.04c0,1.4-.83,2.52-3.2,2.52s-3.2-1.12-3.2-2.52Z"/>
        <path d="M163.53,54.41c-3.85,0-5.69-2.23-5.69-5.36v-9.07h-5.04v-4.14h3.28c1.58,0,2.2-.54,2.2-2.2v-4.36h4.9v6.55h7.24v4.14h-7.24v10.29h7.24v4.14h-6.88Z"/>
        <path d="M174.69,45.2c0-6.08,3.46-9.79,9.03-9.79s8.96,3.64,8.96,9.43v1.58h-12.71v.32c0,2.38,1.55,4,4.39,4,2.2,0,3.74-.94,4.9-2.3l2.88,3.13c-1.44,1.76-3.96,3.28-7.96,3.28-6.23,0-9.5-3.71-9.5-9.65ZM179.98,43.15v.29h7.49v-.29c0-2.41-1.4-3.92-3.71-3.92s-3.78,1.55-3.78,3.92Z"/>
        <path d="M197.15,50.27h4.28v-10.29h-4.28v-4.14h9.61v5.25h.25c.68-2.74,2.27-5.25,5.94-5.25h1.76v4.9h-3.96c-2.63,0-4,1.8-4,4.03v5.51h6.12v4.14h-15.73v-4.14Z"/>
        <path d="M233.62,54.41c-2.2,0-3.64-1.19-3.85-3.28h-.18c-.65,2.41-2.81,3.71-5.65,3.71-3.6,0-5.98-2.05-5.98-5.54,0-3.89,2.92-5.72,8.35-5.72h2.99v-.94c0-2.2-.94-3.35-3.38-3.35-2.23,0-3.53.97-4.54,2.34l-2.92-2.59c1.22-2.09,3.92-3.64,8.06-3.64,5.08,0,8.1,2.34,8.1,7.02v8.13h2.05v3.85h-3.06ZM229.3,48.69v-2.23h-2.84c-2.12,0-3.28.76-3.28,2.2v.72c0,1.3,1.08,1.98,2.77,1.98,1.87,0,3.35-.94,3.35-2.66Z"/>
        <path d="M240.35,50.27h4.28v-10.29h-4.28v-4.14h9.61v5.25h.25c.68-2.74,2.27-5.25,5.94-5.25h1.76v4.9h-3.96c-2.63,0-4,1.8-4,4.03v5.51h6.12v4.14h-15.73v-4.14Z"/>
        <path d="M274.77,35.84h5.44l-8.75,21.56c-1.08,2.7-2.77,4.21-5.94,4.21h-3.67v-4.14h4.46l1.15-3.17-7.49-18.47h5.72l2.7,7.81,1.69,5.4h.29l1.62-5.4,2.77-7.81Z"/>
        <path d="M305.8,54.41v-25.12h5.44v20.7h10.8v4.43h-16.23Z"/>
        <path d="M325.89,45.2c0-6.08,3.46-9.79,9.03-9.79s8.96,3.64,8.96,9.43v1.58h-12.71v.32c0,2.38,1.55,4,4.39,4,2.2,0,3.74-.94,4.9-2.3l2.88,3.13c-1.44,1.76-3.96,3.28-7.96,3.28-6.23,0-9.5-3.71-9.5-9.65ZM331.18,43.15v.29h7.49v-.29c0-2.41-1.4-3.92-3.71-3.92s-3.78,1.55-3.78,3.92Z"/>
        <path d="M356.38,62.04c-7.05,0-9-1.76-9-4.28,0-2.09,1.33-3.06,3.56-3.64v-.22c-1.58-.47-2.59-1.3-2.59-2.92,0-1.8,1.33-2.56,3.35-3.02v-.22c-2.2-1.04-3.49-2.99-3.49-5.72,0-4.32,3.2-6.62,8.06-6.62,1.19,0,2.3.14,3.28.4v-1.01c0-1.44,1.08-2.52,2.84-2.52h3.28v3.89h-4.46v.32c2.02,1.04,3.2,2.92,3.2,5.54,0,4.28-3.24,6.62-8.14,6.62-1.08,0-2.12-.11-3.02-.36-.54.29-.94.72-.94,1.37,0,1.19,1.26,1.26,2.74,1.26h4.25c5.33,0,7.38,2.23,7.38,5.36,0,3.92-3.24,5.76-10.29,5.76ZM358.86,55.13h-6.37c-.47.4-.72.9-.72,1.51,0,1.15.9,1.98,3.24,1.98h3.13c2.41,0,3.49-.68,3.49-1.94,0-.97-.61-1.55-2.77-1.55ZM359.36,42.46v-.86c0-1.62-.97-2.81-3.1-2.81s-3.02,1.19-3.02,2.81v.86c0,1.62.94,2.81,3.02,2.81s3.1-1.19,3.1-2.81Z"/>
        <path d="M369.09,45.2c0-6.08,3.46-9.79,9.03-9.79s8.96,3.64,8.96,9.43v1.58h-12.71v.32c0,2.38,1.55,4,4.39,4,2.2,0,3.74-.94,4.9-2.3l2.88,3.13c-1.44,1.76-3.96,3.28-7.96,3.28-6.23,0-9.5-3.71-9.5-9.65ZM374.38,43.15v.29h7.49v-.29c0-2.41-1.4-3.92-3.71-3.92s-3.78,1.55-3.78,3.92Z"/>
        <path d="M391.23,54.41v-18.57h5.33v3.38h.22c.83-2.09,2.48-3.82,5.47-3.82,3.56,0,6.05,2.48,6.05,6.98v12.02h-5.33v-11.3c0-2.34-1.04-3.6-3.13-3.6-1.66,0-3.28.9-3.28,2.7v12.2h-5.33Z"/>
        <path d="M424.63,51.03h-.25c-.94,2.23-2.52,3.82-5.51,3.82-4.1,0-6.98-2.99-6.98-9.72s2.88-9.72,6.98-9.72c2.99,0,4.57,1.58,5.51,3.82h.25v-11.45h5.33v26.64h-5.33v-3.38ZM424.63,47.86v-5.47c0-1.94-1.58-2.84-3.46-2.84-2.38,0-3.74,1.55-3.74,4.14v2.88c0,2.59,1.37,4.14,3.74,4.14,1.87,0,3.46-.9,3.46-2.84Z"/>
      </g>
    </g>
  </g>
</svg>