<?xml version="1.0" encoding="UTF-8"?>
<svg id="Layer_2" data-name="Layer 2" xmlns="http://www.w3.org/2000/svg" viewBox="0 0 420 76">
  <defs>
    <style>
      .cls-1 {
        fill: #c19752;
      }

      .cls-2 {
        fill: #e8d4b3;
        stroke: #000;
        stroke-miterlimit: 10;
        stroke-width: 3px;
      }

      .cls-3 {
        fill: #d39c4a;
      }
    </style>
  </defs>
  <g id="Layer_2-2" data-name="Layer 2">
    <g id="nov">
      <rect class="cls-2" x="1.5" y="1.5" width="417" height="73" rx="12.79" ry="12.79"/>
      <g>
        <path d="M82.56,33.44h-.4v16.7h-4.61v-25.12h6.48l5.72,16.7h.4v-16.7h4.61v25.12h-6.48l-5.72-16.7Z"/>
        <path d="M98.43,40.85c0-6.01,3.53-9.72,9.32-9.72s9.32,3.71,9.32,9.72-3.53,9.72-9.32,9.72-9.32-3.71-9.32-9.72ZM111.57,42.33v-2.95c0-2.74-1.44-4.28-3.82-4.28s-3.82,1.55-3.82,4.28v2.95c0,2.74,1.44,4.28,3.82,4.28s3.82-1.55,3.82-4.28Z"/>
        <path d="M126.19,50.14l-6.66-18.57h5.62l2.41,7.96,1.76,6.19h.29l1.76-6.19,2.41-7.96h5.4l-6.66,18.57h-6.34Z"/>
        <path d="M143.54,46h5.9v-10.29h-5.9v-4.14h11.23v14.43h5.47v4.14h-16.7v-4.14ZM148.9,26.67v-1.04c0-1.44.83-2.52,3.2-2.52s3.2,1.08,3.2,2.52v1.04c0,1.4-.83,2.52-3.2,2.52s-3.2-1.12-3.2-2.52Z"/>
        <path d="M163.91,40.85c0-6.01,3.56-9.72,9.36-9.72,4.07,0,6.44,1.84,7.74,4.54l-4.1,2.23c-.65-1.44-1.66-2.52-3.64-2.52-2.41,0-3.82,1.51-3.82,3.96v3.02c0,2.45,1.37,3.96,3.89,3.96,2.05,0,3.13-1.08,3.92-2.59l4.03,2.3c-1.33,2.7-3.85,4.54-7.99,4.54-5.87,0-9.4-3.71-9.4-9.72Z"/>
        <path d="M185.15,40.93c0-6.08,3.46-9.79,9.03-9.79s8.96,3.64,8.96,9.43v1.58h-12.71v.32c0,2.38,1.55,4,4.39,4,2.2,0,3.74-.94,4.9-2.3l2.88,3.13c-1.44,1.76-3.96,3.28-7.96,3.28-6.23,0-9.5-3.71-9.5-9.65ZM190.45,38.87v.29h7.49v-.29c0-2.41-1.4-3.92-3.71-3.92s-3.78,1.55-3.78,3.92Z"/>
        <path d="M233.75,33.44h-.4v16.7h-4.61v-25.12h6.48l5.72,16.7h.4v-16.7h4.61v25.12h-6.48l-5.72-16.7Z"/>
        <path d="M265.68,50.14c-2.2,0-3.64-1.19-3.85-3.28h-.18c-.65,2.41-2.81,3.71-5.65,3.71-3.6,0-5.98-2.05-5.98-5.54,0-3.89,2.92-5.72,8.35-5.72h2.99v-.94c0-2.2-.94-3.35-3.38-3.35-2.23,0-3.53.97-4.54,2.34l-2.92-2.59c1.22-2.09,3.92-3.64,8.06-3.64,5.08,0,8.1,2.34,8.1,7.02v8.13h2.05v3.85h-3.06ZM261.36,44.42v-2.23h-2.84c-2.12,0-3.28.76-3.28,2.2v.72c0,1.3,1.08,1.98,2.77,1.98,1.87,0,3.35-.94,3.35-2.66Z"/>
        <path d="M272.42,46h4.28v-10.29h-4.28v-4.14h9.61v5.26h.25c.68-2.74,2.27-5.26,5.94-5.26h1.76v4.9h-3.96c-2.63,0-4,1.8-4,4.03v5.51h6.12v4.14h-15.73v-4.14Z"/>
        <path d="M294.02,46h4.28v-10.29h-4.28v-4.14h9.61v5.26h.25c.68-2.74,2.27-5.26,5.94-5.26h1.76v4.9h-3.96c-2.63,0-4,1.8-4,4.03v5.51h6.12v4.14h-15.73v-4.14Z"/>
        <path d="M330.48,50.14c-2.2,0-3.64-1.19-3.85-3.28h-.18c-.65,2.41-2.81,3.71-5.65,3.71-3.6,0-5.98-2.05-5.98-5.54,0-3.89,2.92-5.72,8.35-5.72h2.99v-.94c0-2.2-.94-3.35-3.38-3.35-2.23,0-3.53.97-4.54,2.34l-2.92-2.59c1.22-2.09,3.92-3.64,8.06-3.64,5.08,0,8.1,2.34,8.1,7.02v8.13h2.05v3.85h-3.06ZM326.16,44.42v-2.23h-2.84c-2.12,0-3.28.76-3.28,2.2v.72c0,1.3,1.08,1.98,2.77,1.98,1.87,0,3.35-.94,3.35-2.66Z"/>
        <path d="M346.79,50.14c-3.85,0-5.69-2.23-5.69-5.36v-9.07h-5.04v-4.14h3.28c1.58,0,2.2-.54,2.2-2.2v-4.36h4.9v6.55h7.24v4.14h-7.24v10.29h7.24v4.14h-6.88Z"/>
        <path d="M357.63,40.85c0-6.01,3.53-9.72,9.32-9.72s9.32,3.71,9.32,9.72-3.53,9.72-9.32,9.72-9.32-3.71-9.32-9.72ZM370.77,42.33v-2.95c0-2.74-1.44-4.28-3.82-4.28s-3.82,1.55-3.82,4.28v2.95c0,2.74,1.44,4.28,3.82,4.28s3.82-1.55,3.82-4.28Z"/>
        <path d="M380.42,46h4.28v-10.29h-4.28v-4.14h9.61v5.26h.25c.68-2.74,2.27-5.26,5.94-5.26h1.76v4.9h-3.96c-2.63,0-4,1.8-4,4.03v5.51h6.12v4.14h-15.73v-4.14Z"/>
      </g>
      <g>
        <circle class="cls-1" cx="37.5" cy="38" r="25"/>
        <path class="cls-3" d="M48.79,15.69L15.19,49.29c1.42,2.8,3.34,5.29,5.66,7.36L56.15,21.35c-2.07-2.32-4.56-4.24-7.36-5.66Z"/>
        <path class="cls-3" d="M62.5,38c0-5.36-1.69-10.31-4.56-14.38L23.12,58.44c4.07,2.87,9.03,4.56,14.38,4.56,1.5,0,2.97-.14,4.39-.39l20.21-20.21c.25-1.43.39-2.89.39-4.39Z"/>
      </g>
    </g>
  </g>
</svg>