<?xml version="1.0" encoding="UTF-8"?>
<svg id="Layer_2" data-name="Layer 2" xmlns="http://www.w3.org/2000/svg" viewBox="0 0 620 73">
  <defs>
    <style>
      .cls-1 {
        fill: none;
      }

      .cls-2 {
        fill: #ffc5d3;
      }

      .cls-3 {
        fill: #e85275;
      }

      .cls-4 {
        fill: #eaadad;
      }

      .cls-5 {
        fill: #c13a4e;
      }
    </style>
  </defs>
  <g id="Layer_2-2" data-name="Layer 2">
    <g>
      <rect class="cls-4" width="620" height="73" rx="12.79" ry="12.79"/>
      <g>
        <path d="M83.09,45.81l3.13-3.46c1.84,2.02,4.1,2.95,6.33,2.95,2.56,0,3.96-1.19,3.96-3.35,0-1.76-.94-2.59-3.38-2.99l-2.63-.43c-4.5-.76-6.41-3.53-6.41-7.2,0-4.82,3.35-7.63,9.04-7.63,3.85,0,6.8,1.3,8.57,3.35l-3.06,3.42c-1.33-1.48-3.2-2.38-5.47-2.38-2.41,0-3.64,1.01-3.64,2.99,0,1.73,1.01,2.48,3.46,2.92l2.63.47c4.03.72,6.37,3.09,6.37,7.05,0,4.72-3.31,8.17-9.61,8.17-4.18,0-7.38-1.51-9.29-3.89Z"/>
        <path d="M105.91,22.63h5.33v11.45h.22c.83-2.09,2.48-3.82,5.47-3.82,3.56,0,6.05,2.48,6.05,6.98v12.02h-5.33v-11.3c0-2.34-1.04-3.6-3.13-3.6-1.66,0-3.28.9-3.28,2.7v12.2h-5.33v-26.64Z"/>
        <path d="M142.7,49.27c-2.2,0-3.64-1.19-3.85-3.28h-.18c-.65,2.41-2.81,3.71-5.65,3.71-3.6,0-5.98-2.05-5.98-5.54,0-3.89,2.92-5.72,8.35-5.72h2.99v-.94c0-2.2-.94-3.35-3.38-3.35-2.23,0-3.53.97-4.54,2.34l-2.92-2.59c1.22-2.09,3.92-3.64,8.06-3.64,5.08,0,8.1,2.34,8.1,7.02v8.13h2.05v3.85h-3.06ZM138.38,43.54v-2.23h-2.84c-2.12,0-3.28.76-3.28,2.2v.72c0,1.3,1.08,1.98,2.77,1.98,1.87,0,3.35-.94,3.35-2.66Z"/>
        <path d="M149.11,22.63h5.33v15.12h.25l2.48-2.92,3.89-4.14h6.12l-7.2,7.34,7.96,11.23h-6.34l-5.4-8.21-1.76,1.76v6.44h-5.33v-26.64Z"/>
        <path d="M170.17,40.05c0-6.08,3.46-9.79,9.03-9.79s8.96,3.64,8.96,9.43v1.58h-12.71v.32c0,2.38,1.55,4,4.39,4,2.2,0,3.74-.94,4.9-2.3l2.88,3.13c-1.44,1.76-3.96,3.28-7.96,3.28-6.23,0-9.5-3.71-9.5-9.65ZM175.46,38v.29h7.49v-.29c0-2.41-1.4-3.92-3.71-3.92s-3.78,1.55-3.78,3.92Z"/>
        <path d="M191.73,46.21l2.99-2.77c1.44,1.58,3.38,2.52,5.87,2.52,2.09,0,3.38-.65,3.38-1.98,0-1.04-.86-1.37-2.3-1.58l-2.99-.47c-3.31-.5-5.94-1.91-5.94-5.43,0-3.89,3.13-6.23,8.5-6.23,3.64,0,6.19,1.04,7.74,2.84l-2.66,3.02c-1.08-1.19-2.84-2.12-5.26-2.12-2.02,0-3.1.65-3.1,1.87,0,1.08.86,1.4,2.3,1.62l2.95.47c3.35.5,5.98,1.91,5.98,5.44,0,3.85-3.13,6.3-8.64,6.3-4.1,0-7.31-1.33-8.82-3.49Z"/>
        <path d="M213.69,30.69h5.33v3.38h.25c.94-2.23,2.52-3.82,5.51-3.82,4.1,0,6.98,2.99,6.98,9.72s-2.88,9.72-6.98,9.72c-2.99,0-4.57-1.58-5.51-3.82h-.25v10.58h-5.33v-25.77ZM226.22,41.42v-2.88c0-2.59-1.37-4.14-3.74-4.14-1.87,0-3.46.9-3.46,2.84v5.47c0,1.94,1.58,2.84,3.46,2.84,2.38,0,3.74-1.55,3.74-4.14Z"/>
        <path d="M234.97,40.05c0-6.08,3.46-9.79,9.03-9.79s8.96,3.64,8.96,9.43v1.58h-12.71v.32c0,2.38,1.55,4,4.39,4,2.2,0,3.74-.94,4.9-2.3l2.88,3.13c-1.44,1.76-3.96,3.28-7.96,3.28-6.23,0-9.5-3.71-9.5-9.65ZM240.26,38v.29h7.49v-.29c0-2.41-1.4-3.92-3.71-3.92s-3.78,1.55-3.78,3.92Z"/>
        <path d="M272.3,49.27c-2.2,0-3.64-1.19-3.85-3.28h-.18c-.65,2.41-2.81,3.71-5.65,3.71-3.6,0-5.98-2.05-5.98-5.54,0-3.89,2.92-5.72,8.35-5.72h2.99v-.94c0-2.2-.94-3.35-3.38-3.35-2.23,0-3.53.97-4.54,2.34l-2.92-2.59c1.22-2.09,3.92-3.64,8.06-3.64,5.08,0,8.1,2.34,8.1,7.02v8.13h2.05v3.85h-3.06ZM267.98,43.54v-2.23h-2.84c-2.12,0-3.28.76-3.28,2.2v.72c0,1.3,1.08,1.98,2.77,1.98,1.87,0,3.35-.94,3.35-2.66Z"/>
        <path d="M279.03,45.13h4.28v-10.29h-4.28v-4.14h9.61v5.26h.25c.68-2.74,2.27-5.26,5.94-5.26h1.76v4.9h-3.96c-2.63,0-4,1.8-4,4.03v5.51h6.12v4.14h-15.73v-4.14Z"/>
        <path d="M299.77,40.05c0-6.08,3.46-9.79,9.03-9.79s8.96,3.64,8.96,9.43v1.58h-12.71v.32c0,2.38,1.55,4,4.39,4,2.2,0,3.74-.94,4.9-2.3l2.88,3.13c-1.44,1.76-3.96,3.28-7.96,3.28-6.23,0-9.5-3.71-9.5-9.65ZM305.06,38v.29h7.49v-.29c0-2.41-1.4-3.92-3.71-3.92s-3.78,1.55-3.78,3.92Z"/>
        <path d="M337.1,49.27c-2.2,0-3.64-1.19-3.85-3.28h-.18c-.65,2.41-2.81,3.71-5.65,3.71-3.6,0-5.98-2.05-5.98-5.54,0-3.89,2.92-5.72,8.35-5.72h2.99v-.94c0-2.2-.94-3.35-3.38-3.35-2.23,0-3.53.97-4.54,2.34l-2.92-2.59c1.22-2.09,3.92-3.64,8.06-3.64,5.08,0,8.1,2.34,8.1,7.02v8.13h2.05v3.85h-3.06ZM332.78,43.54v-2.23h-2.84c-2.12,0-3.28.76-3.28,2.2v.72c0,1.3,1.08,1.98,2.77,1.98,1.87,0,3.35-.94,3.35-2.66Z"/>
        <path d="M343.51,49.27v-18.57h5.33v3.38h.22c.83-2.09,2.48-3.82,5.47-3.82,3.56,0,6.05,2.48,6.05,6.98v12.02h-5.33v-11.3c0-2.34-1.04-3.6-3.13-3.6-1.66,0-3.28.9-3.28,2.7v12.2h-5.33Z"/>
        <path d="M385.48,45.81l3.13-3.46c1.84,2.02,4.1,2.95,6.33,2.95,2.56,0,3.96-1.19,3.96-3.35,0-1.76-.94-2.59-3.38-2.99l-2.63-.43c-4.5-.76-6.41-3.53-6.41-7.2,0-4.82,3.35-7.63,9.04-7.63,3.85,0,6.8,1.3,8.57,3.35l-3.06,3.42c-1.33-1.48-3.2-2.38-5.47-2.38-2.41,0-3.64,1.01-3.64,2.99,0,1.73,1.01,2.48,3.46,2.92l2.63.47c4.03.72,6.37,3.09,6.37,7.05,0,4.72-3.31,8.17-9.61,8.17-4.18,0-7.38-1.51-9.29-3.89Z"/>
        <path d="M408.13,39.98c0-6.01,3.56-9.72,9.36-9.72,4.07,0,6.44,1.84,7.74,4.54l-4.1,2.23c-.65-1.44-1.66-2.52-3.64-2.52-2.41,0-3.82,1.51-3.82,3.96v3.02c0,2.45,1.37,3.96,3.89,3.96,2.05,0,3.13-1.08,3.92-2.59l4.03,2.3c-1.33,2.7-3.85,4.54-7.99,4.54-5.87,0-9.4-3.71-9.4-9.72Z"/>
        <path d="M429.91,22.63h5.33v11.45h.22c.83-2.09,2.48-3.82,5.47-3.82,3.56,0,6.05,2.48,6.05,6.98v12.02h-5.33v-11.3c0-2.34-1.04-3.6-3.13-3.6-1.66,0-3.28.9-3.28,2.7v12.2h-5.33v-26.64Z"/>
        <path d="M450.64,39.98c0-6.01,3.53-9.72,9.32-9.72s9.32,3.71,9.32,9.72-3.53,9.72-9.32,9.72-9.32-3.71-9.32-9.72ZM463.78,41.45v-2.95c0-2.74-1.44-4.28-3.82-4.28s-3.82,1.55-3.82,4.28v2.95c0,2.74,1.44,4.28,3.82,4.28s3.82-1.55,3.82-4.28Z"/>
        <path d="M473.21,45.13h5.69v-18.36h-5.69v-4.14h11.01v22.5h5.69v4.14h-16.7v-4.14Z"/>
        <path d="M509.9,49.27c-2.2,0-3.64-1.19-3.85-3.28h-.18c-.65,2.41-2.81,3.71-5.65,3.71-3.6,0-5.98-2.05-5.98-5.54,0-3.89,2.92-5.72,8.35-5.72h2.99v-.94c0-2.2-.94-3.35-3.38-3.35-2.23,0-3.53.97-4.54,2.34l-2.92-2.59c1.22-2.09,3.92-3.64,8.06-3.64,5.08,0,8.1,2.34,8.1,7.02v8.13h2.05v3.85h-3.06ZM505.58,43.54v-2.23h-2.84c-2.12,0-3.28.76-3.28,2.2v.72c0,1.3,1.08,1.98,2.77,1.98,1.87,0,3.35-.94,3.35-2.66Z"/>
        <path d="M516.63,45.13h4.28v-10.29h-4.28v-4.14h9.61v5.26h.25c.68-2.74,2.27-5.26,5.94-5.26h1.76v4.9h-3.96c-2.63,0-4,1.8-4,4.03v5.51h6.12v4.14h-15.73v-4.14Z"/>
      </g>
      <g>
        <rect class="cls-5" x="16.61" y="16.15" width="41.01" height="40.69" rx="5.74" ry="5.74" transform="translate(-14.94 36.93) rotate(-45)"/>
        <path class="cls-1" d="M41.28,11.67c-2.24-2.24-5.87-2.24-8.12,0l-20.88,20.88c-2.24,2.24-2.24,5.87,0,8.12l6.37,6.37,29-29-6.37-6.37Z"/>
        <rect class="cls-1" x="17.52" y="36.09" width="41.01" height="2.64" transform="translate(-15.32 37.84) rotate(-45)"/>
        <path class="cls-1" d="M34.62,62.47c2.12.97,4.7.6,6.44-1.14l20.88-20.88c1.74-1.74,2.11-4.32,1.14-6.44l-28.47,28.47Z"/>
        <path class="cls-3" d="M61.94,32.33l-8.49-8.49-29,29,8.49,8.49c.5.5,1.07.87,1.68,1.14l28.47-28.47c-.28-.61-.65-1.18-1.14-1.68Z"/>
        <rect class="cls-3" x="14.62" y="31.73" width="41.01" height="5.57" transform="translate(-14.11 34.94) rotate(-45)"/>
        <polygon class="cls-2" points="31.07 17.9 38 14.27 34.36 21.19 38 28.12 31.07 24.48 24.14 28.12 27.78 21.19 24.14 14.27 31.07 17.9"/>
        <polygon class="cls-2" points="51.12 48.05 56 45.49 53.44 50.37 56 55.25 51.12 52.69 46.24 55.25 48.8 50.37 46.24 45.49 51.12 48.05"/>
      </g>
      <g>
        <rect class="cls-5" x="559.63" y="16.15" width="41.01" height="40.69" rx="5.74" ry="5.74" transform="translate(144.11 420.91) rotate(-45)"/>
        <path class="cls-1" d="M584.31,11.67c-2.24-2.24-5.87-2.24-8.12,0l-20.88,20.88c-2.24,2.24-2.24,5.87,0,8.12l6.37,6.37,29-29-6.37-6.37Z"/>
        <rect class="cls-1" x="560.54" y="36.09" width="41.01" height="2.64" transform="translate(143.73 421.82) rotate(-45)"/>
        <path class="cls-1" d="M577.64,62.47c2.12.97,4.7.6,6.44-1.14l20.88-20.88c1.74-1.74,2.11-4.32,1.14-6.44l-28.47,28.47Z"/>
        <path class="cls-3" d="M604.97,32.33l-8.49-8.49-29,29,8.49,8.49c.5.5,1.07.87,1.68,1.14l28.47-28.47c-.28-.61-.65-1.18-1.14-1.68Z"/>
        <rect class="cls-3" x="557.64" y="31.73" width="41.01" height="5.57" transform="translate(144.93 418.92) rotate(-45)"/>
        <polygon class="cls-2" points="574.1 17.9 581.02 14.27 577.39 21.19 581.02 28.12 574.1 24.48 567.17 28.12 570.81 21.19 567.17 14.27 574.1 17.9"/>
        <polygon class="cls-2" points="594.14 48.05 599.02 45.49 596.46 50.37 599.02 55.25 594.14 52.69 589.26 55.25 591.82 50.37 589.26 45.49 594.14 48.05"/>
      </g>
    </g>
  </g>
</svg>