<?xml version="1.0" encoding="UTF-8"?>
<svg id="Layer_2" data-name="Layer 2" xmlns="http://www.w3.org/2000/svg" viewBox="0 0 291.45 73">
  <defs>
    <style>
      .cls-1 {
        fill: #eacc75;
      }

      .cls-2 {
        fill: #efe9b1;
      }

      .cls-3 {
        fill: #efd59a;
      }
    </style>
  </defs>
  <g id="Layer_2-2" data-name="Layer 2">
    <g>
      <rect class="cls-2" width="291.45" height="73" rx="12.79" ry="12.79"/>
      <g>
        <path d="M79.76,49.36v-25.12h9.72c4.93,0,7.7,3.13,7.7,7.99s-2.77,7.99-7.7,7.99h-4.28v9.14h-5.44ZM85.19,35.86h2.92c2.52,0,3.38-.9,3.38-3.1v-1.08c0-2.2-.86-3.1-3.38-3.1h-2.92v7.27Z"/>
        <path d="M101.29,45.22h4.28v-10.29h-4.28v-4.14h9.61v5.26h.25c.68-2.74,2.27-5.26,5.94-5.26h1.76v4.9h-3.96c-2.63,0-4,1.8-4,4.03v5.51h6.12v4.14h-15.73v-4.14Z"/>
        <path d="M121.7,40.08c0-6.01,3.53-9.72,9.32-9.72s9.32,3.71,9.32,9.72-3.53,9.72-9.32,9.72-9.32-3.71-9.32-9.72ZM134.84,41.55v-2.95c0-2.74-1.44-4.28-3.82-4.28s-3.82,1.55-3.82,4.28v2.95c0,2.74,1.44,4.28,3.82,4.28s3.82-1.55,3.82-4.28Z"/>
        <path d="M143.58,46.3l2.99-2.77c1.44,1.58,3.38,2.52,5.87,2.52,2.09,0,3.38-.65,3.38-1.98,0-1.04-.86-1.37-2.3-1.58l-2.99-.47c-3.31-.5-5.94-1.91-5.94-5.44,0-3.89,3.13-6.23,8.5-6.23,3.64,0,6.19,1.04,7.74,2.84l-2.66,3.02c-1.08-1.19-2.84-2.12-5.26-2.12-2.02,0-3.1.65-3.1,1.87,0,1.08.86,1.4,2.3,1.62l2.95.47c3.35.5,5.98,1.91,5.98,5.44,0,3.85-3.13,6.3-8.64,6.3-4.1,0-7.31-1.33-8.82-3.49Z"/>
        <path d="M165.22,40.15c0-6.08,3.46-9.79,9.03-9.79s8.96,3.64,8.96,9.43v1.58h-12.71v.32c0,2.38,1.55,4,4.39,4,2.2,0,3.74-.94,4.9-2.3l2.88,3.13c-1.44,1.76-3.96,3.28-7.96,3.28-6.23,0-9.5-3.71-9.5-9.65ZM170.51,38.1v.29h7.49v-.29c0-2.41-1.4-3.92-3.71-3.92s-3.78,1.55-3.78,3.92Z"/>
        <path d="M209.36,49.36v-25.12h9.72c4.93,0,7.7,3.13,7.7,7.99s-2.77,7.99-7.7,7.99h-4.28v9.14h-5.44ZM214.79,35.86h2.92c2.52,0,3.38-.9,3.38-3.1v-1.08c0-2.2-.86-3.1-3.38-3.1h-2.92v7.27Z"/>
        <path d="M230.88,45.22h4.28v-10.29h-4.28v-4.14h9.61v5.26h.25c.68-2.74,2.27-5.26,5.94-5.26h1.76v4.9h-3.96c-2.63,0-4,1.8-4,4.03v5.51h6.12v4.14h-15.73v-4.14Z"/>
        <path d="M251.29,40.08c0-6.01,3.53-9.72,9.32-9.72s9.32,3.71,9.32,9.72-3.53,9.72-9.32,9.72-9.32-3.71-9.32-9.72ZM264.43,41.55v-2.95c0-2.74-1.44-4.28-3.82-4.28s-3.82,1.55-3.82,4.28v2.95c0,2.74,1.44,4.28,3.82,4.28s3.82-1.55,3.82-4.28Z"/>
      </g>
      <g>
        <circle class="cls-1" cx="36" cy="36.5" r="25"/>
        <path class="cls-3" d="M47.29,14.19L13.69,47.79c1.42,2.8,3.34,5.29,5.66,7.36L54.65,19.85c-2.07-2.32-4.56-4.24-7.36-5.66Z"/>
        <path class="cls-3" d="M61,36.5c0-5.36-1.69-10.31-4.56-14.38L21.62,56.94c4.07,2.87,9.03,4.56,14.38,4.56,1.5,0,2.97-.14,4.39-.39l20.21-20.21c.25-1.43.39-2.89.39-4.39Z"/>
      </g>
    </g>
  </g>
</svg>